HIERARCHY
ROOT Hips
{
  OFFSET 55.0751 93.5183 15.261
  CHANNELS 6 Xposition Yposition Zposition Zrotation Xrotation Yrotation
  JOINT spine
  {
    OFFSET 0 7.4756 0.429885
    CHANNELS 3 Zrotation Xrotation Yrotation
    JOINT spine1
    {
      OFFSET 0 9.92301 0
      CHANNELS 3 Zrotation Xrotation Yrotation
      JOINT spine2
      {
        OFFSET 0 9.50804 0
        CHANNELS 3 Zrotation Xrotation Yrotation
        JOINT Neck
        {
          OFFSET 0 24.4111 1.16384
          CHANNELS 3 Zrotation Xrotation Yrotation
          JOINT Head
          {
            OFFSET 0 7.37523 0
            CHANNELS 3 Zrotation Xrotation Yrotation
            End Site
            {
              OFFSET 0 17.8522 -5.88741
            }
          }
        }
        JOINT RightShoulder
        {
          OFFSET -4.00356 10.2679 -0.557468
          CHANNELS 3 Zrotation Xrotation Yrotation
          JOINT RightArm
          {
            OFFSET 0 13.4673 0
            CHANNELS 3 Zrotation Xrotation Yrotation
            JOINT RightArmRoll
            {
              OFFSET 0 6.79858 0
              CHANNELS 3 Zrotation Xrotation Yrotation
              JOINT RightForeArm
              {
                OFFSET 0 19.8018 0
                CHANNELS 3 Zrotation Xrotation Yrotation
                JOINT RightForeArmRoll
                {
                  OFFSET 0 7.62905 0
                  CHANNELS 3 Zrotation Xrotation Yrotation
                  JOINT RightHand
                  {
                    OFFSET 0 15.3098 0
                    CHANNELS 3 Zrotation Xrotation Yrotation
                    End Site
                    {
                      OFFSET 0 0 0
                    }
                  }
                }
              }
            }
          }
        }
        JOINT LeftShoulder
        {
          OFFSET 4.00356 10.2679 -0.557468
          CHANNELS 3 Zrotation Xrotation Yrotation
          JOINT LeftArm
          {
            OFFSET 0 13.4673 0
            CHANNELS 3 Zrotation Xrotation Yrotation
            JOINT LeftArmRoll
            {
              OFFSET 0 6.79858 0
              CHANNELS 3 Zrotation Xrotation Yrotation
              JOINT LeftForeArm
              {
                OFFSET 0 19.8018 0
                CHANNELS 3 Zrotation Xrotation Yrotation
                JOINT LeftForeArmRoll
                {
                  OFFSET 0 7.62906 0
                  CHANNELS 3 Zrotation Xrotation Yrotation
                  JOINT LeftHand
                  {
                    OFFSET 0 15.3098 0
                    CHANNELS 3 Zrotation Xrotation Yrotation
                    End Site
                    {
                      OFFSET 0 0 0
                    }
                  }
                }
              }
            }
          }
        }
      }
    }
  }
  JOINT RightUpLeg
  {
    OFFSET -6.62609 -1.21505 -1.01927
    CHANNELS 3 Zrotation Xrotation Yrotation
    JOINT RightUpLegRoll
    {
      OFFSET 0 17.9517 0
      CHANNELS 3 Zrotation Xrotation Yrotation
      JOINT RightLeg
      {
        OFFSET 0 -22.2304 0
        CHANNELS 3 Zrotation Xrotation Yrotation
        JOINT RightLegRoll
        {
          OFFSET 0 22.3032 0
          CHANNELS 3 Zrotation Xrotation Yrotation
          JOINT RightFoot
          {
            OFFSET 0 18.5636 0
            CHANNELS 3 Zrotation Xrotation Yrotation
            JOINT RightToeBase
            {
              OFFSET 0 15.5183 0
              CHANNELS 3 Zrotation Xrotation Yrotation
              End Site
              {
                OFFSET 0.00657761 7.51539 -0.866263
              }
            }
          }
        }
      }
    }
  }
  JOINT LeftUpLeg
  {
    OFFSET 6.62609 -1.21505 -1.01927
    CHANNELS 3 Zrotation Xrotation Yrotation
    JOINT LeftUpLegRoll
    {
      OFFSET 0 17.9518 0
      CHANNELS 3 Zrotation Xrotation Yrotation
      JOINT LeftLeg
      {
        OFFSET 0 22.2303 0
        CHANNELS 3 Zrotation Xrotation Yrotation
        JOINT LeftLegRoll
        {
          OFFSET 0 22.5093 0
          CHANNELS 3 Zrotation Xrotation Yrotation
          JOINT LeftFoot
          {
            OFFSET 0 18.3575 0
            CHANNELS 3 Zrotation Xrotation Yrotation
            JOINT LeftToeBase
            {
              OFFSET 0 15.5183 0
              CHANNELS 3 Zrotation Xrotation Yrotation
              End Site
              {
                OFFSET -0.029478 7.51538 -0.866263
              }
            }
          }
        }
      }
    }
  }
}
MOTION
Frames: 5
Frame Time: 0.00208333
52.9666 95.4898 20.6526 -3.43848 1.29764 -3.72608 0.192228 -1.75082 0.0170464 0.384565 0.501193 0.0149136 0.384573 2.14624 0.00847915 -4.12236 -1.00936 -2.41281 7.27357 4.97824 -2.65916 61.3097 -6.54033 -4.16495 107.995 -1.10778 -35.3429 1.29738e-006 -2.83526e-007 -8.15311e-006 -129.053 75.5996 112.787 -5.02385e-006 -1.13669e-006 -3.00082 8.02995 -4.9514 0.697657 -58.0009 -8.17903 5.05814 -119.319 -7.04271 27.8316 8.76775e-006 -6.94388e-007 2.62443e-006 121.587 83.2182 -109.247 9.16226e-006 -2.98869e-006 3.00739 -8.03021 -4.9514 -0.697631 -178.66 10.873 -0.0034605 180 7.01539e-015 178.891 175.494 27.762 -179.808 -5.3236e-007 -4.95796e-006 0.359638 -21.2835 70.9977 22.382 8.08108 24.4047 -3.46102 -173.789 8.44096 -6.00552 4.54188e-006 -4.6773e-006 -1.27711 -7.36679 -24.4132 -0.507892 -2.53518e-006 6.48697e-006 -0.482954 14.9542 64.0733 -16.7639 -10.3838 37.2746 9.66604 
53.0043 95.8684 20.7786 -3.38583 1.27231 -3.70443 0.18457 -1.78782 0.026178 0.369446 0.427251 0.0340198 0.36921 2.0723 0.0278452 -4.34736 -0.656426 -2.40812 7.50349 4.88191 -2.68717 61.2311 -6.50892 -4.14206 108.039 -1.49792 -35.3262 1.29738e-006 -2.83526e-007 -8.15311e-006 -129.461 75.4266 113.061 -5.02385e-006 -1.13669e-006 -3.00082 8.02995 -4.9514 0.697657 -58.1003 -8.1067 5.01583 -119.283 -7.16377 27.9065 8.76775e-006 -6.94388e-007 2.62443e-006 123.515 82.9489 -110.992 9.16226e-006 -2.98869e-006 3.00739 -8.03021 -4.9514 -0.697631 -178.769 10.4612 -0.0323155 180 7.0154e-015 178.894 175.617 26.9241 -179.851 -5.3236e-007 -4.95796e-006 0.351043 -21.1975 70.9716 22.3444 8.0736 24.292 -3.45747 -173.887 7.9734 -5.78774 4.54188e-006 -4.67731e-006 -1.26543 -7.30088 -23.4241 -0.463862 -2.53518e-006 6.48696e-006 -0.459781 14.8296 63.9205 -16.6658 -10.1304 36.4327 9.22198 
53.1151 96.1955 20.6183 -3.32699 1.2468 -3.67578 0.176739 -1.82476 0.0347516 0.353975 0.353412 0.0520171 0.353508 1.99847 0.0461072 -4.59331 -0.299856 -2.4039 7.74374 4.79135 -2.71908 61.1328 -6.48001 -4.11984 108.107 -1.89615 -35.3094 1.29738e-006 -2.83526e-007 -8.15311e-006 -129.847 75.2606 113.318 -5.02385e-006 -1.13669e-006 -3.00081 8.02995 -4.9514 0.697657 -58.2268 -8.02709 4.96972 -119.22 -7.27135 27.9747 8.76775e-006 -6.94388e-007 2.62443e-006 125.285 82.6753 -112.58 9.16226e-006 -2.98869e-006 3.00739 -8.03021 -4.9514 -0.697631 -178.882 10.0477 -0.0617841 180 7.01541e-015 178.897 175.746 26.0768 -179.893 -5.3236e-007 -4.95796e-006 0.344389 -21.1537 70.9661 22.3336 8.07047 24.2446 -3.45598 -173.992 7.50338 -5.55869 4.54188e-006 -4.67731e-006 -1.25349 -7.2349 -22.4324 -0.425445 -2.53518e-006 6.48696e-006 -0.439306 14.7775 63.8317 -16.61 -9.86303 35.4988 8.71507 
53.13 96.589 20.7495 -3.2629 1.2205 -3.64074 0.168597 -1.86127 0.0428653 0.337876 0.280429 0.0691159 0.33719 1.92549 0.0634803 -4.85286 0.0566095 -2.40095 7.98916 4.70798 -2.75463 61.0207 -6.45331 -4.09839 108.195 -2.30023 -35.2918 1.29738e-006 -2.83526e-007 -8.15311e-006 -130.214 75.1006 113.562 -5.02385e-006 -1.13669e-006 -3.00081 8.02995 -4.9514 0.697657 -58.3732 -7.94219 4.92087 -119.136 -7.36602 28.0376 8.76775e-006 -6.94388e-007 2.62443e-006 126.907 82.4001 -114.022 9.16226e-006 -2.98869e-006 3.00739 -8.03021 -4.9514 -0.697631 -178.997 9.63264 -0.0918873 180 7.01541e-015 178.898 175.879 25.2229 -179.934 -5.3236e-007 -4.95796e-006 0.339394 -21.1456 70.978 22.3453 8.07101 24.2528 -3.45624 -174.103 7.03295 -5.3201 4.54188e-006 -4.67731e-006 -1.24137 -7.16785 -21.4429 -0.391944 -2.53518e-006 6.48696e-006 -0.421154 14.7869 63.7988 -16.5903 -9.59466 34.493 8.1647 
53.0895 96.9708 20.9642 -3.19447 1.19282 -3.59997 0.160005 -1.89697 0.0506175 0.320877 0.209054 0.0855266 0.31998 1.85411 0.0801796 -5.11864 0.40923 -2.40005 8.23459 4.6332 -2.79356 60.9007 -6.42849 -4.07778 108.295 -2.70792 -35.2726 1.29738e-006 -2.83526e-007 -8.15311e-006 -130.568 74.9457 113.795 -5.02385e-006 -1.13669e-006 -3.00081 8.02995 -4.9514 0.697657 -58.5325 -7.85401 4.87034 -119.038 -7.44832 28.0966 8.76775e-006 -6.94388e-007 2.62443e-006 128.394 82.1255 -115.333 9.16226e-006 -2.98869e-006 3.00739 -8.03021 -4.9514 -0.697631 -179.113 9.21591 -0.122646 180 7.01541e-015 178.899 176.017 24.3649 -179.975 -5.3236e-007 -4.95796e-006 0.335778 -21.1674 71.004 22.3755 8.07458 24.3067 -3.45793 -174.217 6.56418 -5.07364 4.54188e-006 -4.67731e-006 -1.22915 -7.09874 -20.4604 -0.362682 -2.53518e-006 6.48696e-006 -0.404954 14.8478 63.814 -16.6011 -9.33608 33.4359 7.58872 
